<svg width="125" height="125" viewBox="0 0 125 125" fill="none" xmlns="http://www.w3.org/2000/svg">
    <path
        d="M79.3813 76.595C78.769 77.8205 77.8505 78.7396 76.932 79.0459C76.3197 79.3523 75.7073 79.3523 75.4012 79.3523H26.7207C33.4564 93.445 48.4585 102.942 65.2977 101.717C82.7491 100.491 97.7513 87.3178 101.119 69.855C102.038 64.3405 102.038 59.1323 101.119 54.2305H61.0113L78.1567 71.3868C78.4628 71.6932 78.769 72.3059 79.0752 72.9187C79.3813 73.5314 79.3813 74.1441 79.3813 74.4505C79.6875 75.6759 79.3813 76.2887 79.3813 76.595Z"
        fill="url(#paint0_radial_5916_209)" />
    <path
        d="M110.61 54.5363C110.916 56.9872 111.223 59.7445 111.223 62.5018C111.223 89.4618 89.4847 111.214 62.5421 111.214C40.4981 111.214 21.822 96.5082 15.6986 76.2882C15.6986 75.9818 15.6986 75.9818 15.3925 75.6754C12.9431 67.0973 12.637 57.6 15.6986 47.7963C22.1281 29.1082 38.6611 15.6281 58.2557 13.79C73.5641 12.5645 87.3416 18.3854 97.1389 28.1891C99.8944 31.2527 98.0574 36.1545 93.771 36.1545C92.5464 36.1545 91.3217 35.5418 90.4032 34.6227C82.7491 26.6572 71.4209 22.0618 58.8681 22.9809C41.7228 24.5127 27.0268 37.6863 23.659 54.8427C22.7405 60.3572 22.7405 65.5654 23.659 70.4673H63.7667L46.6214 53.3109C46.3153 53.0045 46.0091 52.3918 45.7029 51.7791C45.3968 51.1663 45.3968 50.5536 45.3968 50.2472C45.3968 49.6345 45.3968 49.0218 45.7029 48.7154C46.3153 47.49 46.9276 46.5709 48.1523 46.2645C48.7646 45.9582 49.3769 45.9582 49.6831 45.9582H98.0574H108.161H122.551C115.203 18.9981 90.7094 -0.302768 61.9297 0.00359592C29.17 0.30996 1.92115 26.6572 0.0841501 59.1318C-1.75285 95.2827 26.7206 125 62.5421 125C97.1389 125 125 97.1209 125 62.5018C125 59.7445 124.694 57.2936 124.388 54.5363H110.61V54.5363Z"
        fill="url(#paint1_radial_5916_209)" />
    <defs>
        <radialGradient id="paint0_radial_5916_209" cx="0" cy="0" r="1"
            gradientUnits="userSpaceOnUse"
            gradientTransform="translate(32.8266 53.9386) scale(83.5917 53.0171)">
            <stop offset="0.475" stop-color="#4388DD" />
            <stop offset="0.9988" stop-color="#FF4581" />
        </radialGradient>
        <radialGradient id="paint1_radial_5916_209" cx="0" cy="0" r="1"
            gradientUnits="userSpaceOnUse"
            gradientTransform="translate(10.1646 -0.766601) scale(139.157 139.247)">
            <stop offset="0.475" stop-color="#4388DD" />
            <stop offset="0.9988" stop-color="#FF4581" />
        </radialGradient>
    </defs>
</svg>
    